<svg width="85" height="88" viewBox="0 0 85 88" fill="none" xmlns="http://www.w3.org/2000/svg">
<path d="M62.7666 52.2767C47.6019 52.3537 45.1488 61.8232 44.3313 69.8301L43.9596 73.3714H40.9116L40.54 69.8301C39.7224 61.8232 37.195 52.3537 22.5506 52.2767C20.0976 47.0412 19.0568 42.8068 19.0568 38.0335C19.0568 26.1005 28.4976 14.9368 42.4726 14.9368C56.4479 14.9368 65.7399 26.0231 65.7399 38.1109C65.74 42.8068 65.294 47.0412 62.7666 52.2767ZM42.3242 0.462891C19.2801 0.462891 0.398438 20.0182 0.398438 43.9614C0.398438 67.9822 19.2801 87.5372 42.3242 87.5372C65.5912 87.5372 84.3984 67.9822 84.3984 43.9614C84.3984 20.0183 65.5912 0.462891 42.3242 0.462891Z" fill="#29B24A"/>
</svg>
