<svg width="450" height="42" viewBox="128 29 450 42" fill="none" xmlns="http://www.w3.org/2000/svg">
<path d="M457.698 69.5985C457.698 70.3159 457.118 70.8973 456.4 70.8973H438.116C437.398 70.8973 436.818 70.3159 436.818 69.5985V67.5455C436.818 66.3429 435.323 65.7864 434.537 66.6959L431.289 70.4484C431.043 70.7334 430.685 70.8973 430.308 70.8973H398.093C397.375 70.8973 396.793 70.3159 396.793 69.5985V62.1954V58.6214V55.203V31.0175C396.793 30.3004 397.375 29.7188 398.093 29.7188H416.378C417.096 29.7188 417.675 30.3004 417.675 31.0175V54.0594C417.675 54.7768 418.258 55.3582 418.976 55.3582H429.891C430.268 55.3582 430.625 55.1949 430.872 54.9104L436.499 48.4211C436.705 48.1848 436.818 47.8828 436.818 47.5701V31.0175C436.818 30.3004 437.398 29.7188 438.116 29.7188H456.4C457.118 29.7188 457.698 30.3004 457.698 31.0175V69.5985Z" fill="currentColor"/>
<path d="M522.681 69.5985C522.681 70.3159 522.101 70.8973 521.383 70.8973H503.099C502.381 70.8973 501.798 70.3159 501.798 69.5985V64.9179C501.798 64.2007 501.218 63.6193 500.501 63.6193H483.955C483.24 63.6193 482.658 64.2007 482.658 64.9179V69.5985C482.658 70.3159 482.075 70.8973 481.36 70.8973H463.076C462.358 70.8973 461.775 70.3159 461.775 69.5985V62.1954V58.6214V55.203V31.0175C461.775 30.3004 462.358 29.7188 463.076 29.7188H481.36C482.075 29.7188 482.658 30.3004 482.658 31.0175V52.4767C482.658 53.1938 483.24 53.7755 483.955 53.7755H495.464H500.501C501.218 53.7755 501.798 53.1938 501.798 52.4767V31.0175C501.798 30.3004 502.381 29.7188 503.099 29.7188H521.383C522.101 29.7188 522.681 30.3004 522.681 31.0175V69.5985Z" fill="currentColor"/>
<path fill-rule="evenodd" clip-rule="evenodd" d="M164.562 39.7094C165.062 40.1786 165.84 40.1786 166.34 39.7094L176.605 30.0707C176.846 29.8445 177.164 29.7188 177.494 29.7188H201.032C201.749 29.7188 202.331 30.3001 202.331 31.0173V69.5208C202.331 70.2382 201.749 70.8195 201.032 70.8195H182.793C182.076 70.8195 181.495 70.2382 181.495 69.5208V46.5271C181.495 45.81 180.913 45.2286 180.196 45.2286H177.913C177.582 45.2286 177.263 45.3554 177.022 45.5832L166.343 55.676C165.842 56.149 165.059 56.149 164.559 55.676L153.881 45.5832C153.639 45.3554 153.32 45.2286 152.988 45.2286H150.706C149.989 45.2286 149.407 45.81 149.407 46.5271V69.5208C149.407 70.2382 148.826 70.8195 148.109 70.8195H129.87C129.153 70.8195 128.571 70.2382 128.571 69.5208V31.0173C128.571 30.3001 129.153 29.7188 129.87 29.7188H153.407C153.738 29.7188 154.056 29.8445 154.297 30.0707L164.562 39.7094Z" fill="currentColor"/>
<path d="M328.936 53.5068C328.936 54.2239 328.353 54.8053 327.635 54.8053H292.4C291.682 54.8053 291.099 55.3869 291.099 56.1041V61.2304V69.5985C291.099 70.3159 290.519 70.8973 289.802 70.8973H271.571C270.855 70.8973 270.273 70.3159 270.273 69.5985V31.0175C270.273 30.3004 270.855 29.7188 271.571 29.7188H291.099H296.515H312.689H320.778H322.889C323.317 29.7188 323.718 29.9301 323.962 30.2831L328.708 37.2056C328.854 37.4218 328.936 37.6778 328.936 37.9398V42.262V53.5068ZM293.006 40.3022C292.289 40.3022 291.709 40.8838 291.709 41.601V45.1541C291.709 45.8715 292.289 46.4529 293.006 46.4529H305.653C306.696 46.4529 307.314 45.2857 306.726 44.4237L304.309 40.8703C304.068 40.5149 303.664 40.3022 303.236 40.3022H293.006Z" fill="currentColor"/>
<path d="M207.118 47.1093C207.118 46.3919 207.7 45.8105 208.417 45.8105H243.654C244.371 45.8105 244.953 45.2291 244.953 44.512V40.6842C244.953 39.9671 244.371 39.3857 243.654 39.3857H208.417C207.7 39.3857 207.118 38.804 207.118 38.0869V31.0173C207.118 30.3001 207.7 29.7188 208.417 29.7188H264.481C265.198 29.7188 265.779 30.3001 265.779 31.0173V69.5985C265.779 70.3156 265.198 70.897 264.481 70.897H246.252C245.534 70.897 244.953 70.3156 244.953 69.5985V67.7471C244.953 66.5128 243.393 65.9747 242.632 66.9465L239.928 70.3991C239.682 70.7133 239.305 70.897 238.905 70.897H207.188C207.149 70.897 207.118 70.8661 207.118 70.8277V47.1093ZM238.069 60.3136C238.43 60.3136 238.775 60.1632 239.021 59.8985L242.319 56.3452C243.09 55.5143 242.501 54.1632 241.367 54.1632H229.243C228.526 54.1632 227.944 54.7446 227.944 55.4617V59.0151C227.944 59.7322 228.526 60.3136 229.243 60.3136H238.069Z" fill="currentColor"/>
<path d="M332.084 31.2207C332.084 30.5033 332.664 29.9219 333.382 29.9219H351.642C352.36 29.9219 352.942 30.5033 352.942 31.2207V40.7502C352.942 41.4673 353.522 42.0487 354.24 42.0487H368.038C368.428 42.0487 368.796 41.874 369.043 41.5725L371.836 38.1594C372.026 37.9272 372.131 37.6368 372.131 37.3369V31.2207C372.131 30.5033 372.711 29.9219 373.429 29.9219H391.667C392.393 29.9219 392.978 30.5171 392.965 31.2429L392.791 41.3389C392.786 41.7813 392.553 42.1893 392.176 42.4218L381.697 48.8908C380.974 49.3373 380.868 50.3464 381.483 50.934L392.393 61.3739C392.64 61.6118 392.786 61.9388 392.794 62.2826L392.957 69.5315C392.976 70.2603 392.388 70.8598 391.659 70.8598H373.429C372.711 70.8598 372.131 70.2785 372.131 69.5613V62.2091C372.131 61.9092 372.026 61.6185 371.836 61.3866L369.043 57.9733C368.796 57.6721 368.428 57.4971 368.038 57.4971H354.24C353.522 57.4971 352.942 58.0787 352.942 58.7958V69.4838C352.942 70.2012 352.36 70.7826 351.642 70.7826H333.382C332.664 70.7826 332.084 70.2012 332.084 69.4838V31.2207Z" fill="currentColor"/>
<path d="M532.924 30.0557L525.498 42.176C525.371 42.3803 525.306 42.6149 525.306 42.8547V57.8874C525.306 58.1269 525.371 58.3618 525.498 58.5661L532.924 70.6864C533.16 71.0717 533.58 71.3066 534.032 71.3066H575.22C575.935 71.3066 576.517 70.7249 576.517 70.0078V62.0815C576.517 61.3644 575.935 60.783 575.22 60.783H551.01C550.675 60.783 550.349 60.6524 550.108 60.4189L548.179 58.559C547.927 58.3141 547.784 57.9768 547.784 57.6244V55.3202V45.2049V43.1175C547.784 42.765 547.927 42.4277 548.179 42.1831L550.108 40.3232C550.349 40.0897 550.675 39.9591 551.01 39.9591H575.756C576.474 39.9591 577.057 39.3777 577.057 38.6603V30.7341C577.057 30.0169 576.474 29.4355 575.756 29.4355H534.032C533.58 29.4355 533.16 29.6704 532.924 30.0557Z" fill="currentColor"/>
</svg>
